# xmcd
#
# Track frame offsets:
#	150
#	18975
#	37769
#	55128
#	72150
#	94846
#	111045
#	132073
#	153104
#	173801
#	185344
#	207193
#
# Disc length: 2979 seconds
#
# Revision: 0
# Processed by: cddbd v1.5.2PL0 Copyright (c) Steve Scherf et al.
# Submitted via: audiograbber 1.83.01
#
DISCID=8f0ba10c
DTITLE=Lightning Red - The Groovemaster
DYEAR=2008
DGENRE=Country
TTITLE0=One Man's Heaven
TTITLE1=Don't Have To Worry
TTITLE2=Do The Revolution
TTITLE3=Voluptuous
TTITLE4=Tortured Mind
TTITLE5=Cavern Crawl
TTITLE6=Change Is Gonna Come
TTITLE7=The Meek
TTITLE8=Lie No More
TTITLE9=The Shake
TTITLE10=No Matter What
TTITLE11=What It Takes
EXTD=
EXTT0=
EXTT1=
EXTT2=
EXTT3=
EXTT4=
EXTT5=
EXTT6=
EXTT7=
EXTT8=
EXTT9=
EXTT10=
EXTT11=
PLAYORDER=
